<svg xmlns="http://www.w3.org/2000/svg" width="1600" height="900" viewBox="0 0 1600 900" role="img" aria-labelledby="title description">
  <title id="title">StartNest 项目封面</title>
  <desc id="description">StartNest 私人起始页与书签工作台的深色界面封面，展示时钟、搜索、书签分组和侧边导航。</desc>

  <defs>
    <linearGradient id="background" x1="70" y1="20" x2="1530" y2="880" gradientUnits="userSpaceOnUse">
      <stop stop-color="#070B14"/>
      <stop offset="0.55" stop-color="#0B1220"/>
      <stop offset="1" stop-color="#111C2D"/>
    </linearGradient>
    <linearGradient id="frame" x1="548" y1="95" x2="1528" y2="805" gradientUnits="userSpaceOnUse">
      <stop stop-color="#172033"/>
      <stop offset="1" stop-color="#0B1220"/>
    </linearGradient>
    <linearGradient id="sidebar" x1="548" y1="95" x2="650" y2="805" gradientUnits="userSpaceOnUse">
      <stop stop-color="#172235"/>
      <stop offset="1" stop-color="#0E1728"/>
    </linearGradient>
    <linearGradient id="cyan" x1="0" y1="0" x2="1" y2="1">
      <stop stop-color="#7DD3FC"/>
      <stop offset="1" stop-color="#38BDF8"/>
    </linearGradient>
    <linearGradient id="card" x1="0" y1="0" x2="1" y2="1">
      <stop stop-color="#182338"/>
      <stop offset="1" stop-color="#111A2A"/>
    </linearGradient>
    <radialGradient id="glow" cx="0" cy="0" r="1" gradientTransform="translate(1270 330) rotate(133) scale(620 510)" gradientUnits="userSpaceOnUse">
      <stop stop-color="#38BDF8" stop-opacity="0.19"/>
      <stop offset="1" stop-color="#38BDF8" stop-opacity="0"/>
    </radialGradient>
    <radialGradient id="leftGlow" cx="0" cy="0" r="1" gradientTransform="translate(160 690) rotate(-31) scale(480 340)" gradientUnits="userSpaceOnUse">
      <stop stop-color="#1D4ED8" stop-opacity="0.12"/>
      <stop offset="1" stop-color="#1D4ED8" stop-opacity="0"/>
    </radialGradient>
    <pattern id="grid" width="46" height="46" patternUnits="userSpaceOnUse">
      <path d="M46 0H0V46" fill="none" stroke="#BAE6FD" stroke-opacity="0.035"/>
    </pattern>
    <filter id="shadow" x="-20%" y="-20%" width="140%" height="150%">
      <feDropShadow dx="0" dy="26" stdDeviation="30" flood-color="#020617" flood-opacity="0.62"/>
    </filter>
    <filter id="softShadow" x="-30%" y="-30%" width="160%" height="170%">
      <feDropShadow dx="0" dy="10" stdDeviation="12" flood-color="#020617" flood-opacity="0.42"/>
    </filter>
    <filter id="cyanGlow" x="-100%" y="-100%" width="300%" height="300%">
      <feGaussianBlur stdDeviation="9" result="blur"/>
      <feMerge>
        <feMergeNode in="blur"/>
        <feMergeNode in="SourceGraphic"/>
      </feMerge>
    </filter>
    <clipPath id="appClip">
      <rect x="548" y="95" width="980" height="710" rx="34"/>
    </clipPath>
  </defs>

  <rect width="1600" height="900" fill="url(#background)"/>
  <rect width="1600" height="900" fill="url(#grid)"/>
  <rect width="1600" height="900" fill="url(#glow)"/>
  <rect width="760" height="900" fill="url(#leftGlow)"/>

  <g fill="none" stroke="#7DD3FC" stroke-linecap="round">
    <path d="M-105 693C62 543 211 535 390 620" stroke-opacity="0.06" stroke-width="2"/>
    <path d="M-70 748C95 605 250 602 430 690" stroke-opacity="0.045"/>
    <path d="M1110 -102C1296 9 1421 115 1649 108" stroke-opacity="0.055" stroke-width="2"/>
  </g>

  <g>
    <rect x="96" y="84" width="188" height="34" rx="17" fill="#111B2B" stroke="#2B3B54"/>
    <circle cx="116" cy="101" r="4" fill="#38BDF8" filter="url(#cyanGlow)"/>
    <text x="130" y="106" fill="#9FB1C7" font-family="Inter, ui-sans-serif, system-ui, sans-serif" font-size="12" font-weight="650" letter-spacing="1.7">OPEN SOURCE</text>
  </g>

  <g transform="translate(96 154) scale(1.25)" filter="url(#softShadow)">
    <rect width="64" height="64" rx="16" fill="#111827" stroke="#334155" stroke-width="1.2"/>
    <path d="M18 18h28v8H26v8h17v8H18z" fill="#F8FAFC"/>
    <path d="M46 46H18v-8h20v-8H21v-8h25z" fill="#38BDF8" opacity="0.94"/>
  </g>

  <text x="96" y="316" fill="#F8FAFC" font-family="Inter, ui-sans-serif, system-ui, sans-serif" font-size="76" font-weight="760" letter-spacing="-3.2">StartNest</text>
  <text x="100" y="361" fill="#7DD3FC" font-family="Inter, ui-sans-serif, system-ui, sans-serif" font-size="15" font-weight="700" letter-spacing="3.2">PRIVATE STARTPAGE</text>
  <line x1="100" y1="384" x2="144" y2="384" stroke="#38BDF8" stroke-width="3" stroke-linecap="round"/>
  <text x="100" y="425" fill="#C8D5E5" font-family="Inter, ui-sans-serif, system-ui, sans-serif" font-size="24" font-weight="520">私人起始页 · 书签工作台</text>
  <text x="100" y="466" fill="#7F91A8" font-family="Inter, ui-sans-serif, system-ui, sans-serif" font-size="17">把常用入口、搜索与 Web 面板，</text>
  <text x="100" y="495" fill="#7F91A8" font-family="Inter, ui-sans-serif, system-ui, sans-serif" font-size="17">安放在属于自己的云端。</text>

  <g font-family="Inter, ui-sans-serif, system-ui, sans-serif" font-size="12" font-weight="650" letter-spacing="1.1">
    <rect x="98" y="545" width="122" height="38" rx="19" fill="#111B2B" stroke="#26364D"/>
    <path d="M118 560v8m-4-4h8" stroke="#7DD3FC" stroke-width="1.7" stroke-linecap="round"/>
    <text x="133" y="569" fill="#AFC0D3">SELF-HOSTED</text>

    <rect x="232" y="545" width="100" height="38" rx="19" fill="#111B2B" stroke="#26364D"/>
    <rect x="249" y="559" width="12" height="11" rx="3" fill="none" stroke="#7DD3FC" stroke-width="1.5"/>
    <path d="M252 559v-2a3 3 0 0 1 6 0v2" fill="none" stroke="#7DD3FC" stroke-width="1.5"/>
    <text x="271" y="569" fill="#AFC0D3">PRIVATE</text>

    <rect x="344" y="545" width="124" height="38" rx="19" fill="#111B2B" stroke="#26364D"/>
    <path d="M361 558h12M361 563h8M361 568h10" stroke="#7DD3FC" stroke-width="1.6" stroke-linecap="round"/>
    <text x="383" y="569" fill="#AFC0D3">CUSTOMIZABLE</text>
  </g>

  <g opacity="0.42" transform="rotate(-3 1085 450)">
    <rect x="620" y="73" width="880" height="690" rx="34" fill="#111C2D" stroke="#2B405B" stroke-width="2"/>
  </g>

  <g filter="url(#shadow)">
    <rect x="548" y="95" width="980" height="710" rx="34" fill="url(#frame)"/>
  </g>

  <g clip-path="url(#appClip)">
    <rect x="548" y="95" width="980" height="710" fill="#0B1220"/>
    <rect x="548" y="95" width="102" height="710" fill="url(#sidebar)"/>
    <line x1="650" y1="95" x2="650" y2="805" stroke="#27364B"/>
    <ellipse cx="1300" cy="195" rx="400" ry="270" fill="#38BDF8" opacity="0.045"/>

    <g>
      <rect x="571" y="128" width="56" height="56" rx="16" fill="#1E2C42" stroke="#334A67"/>
      <text x="599" y="162" text-anchor="middle" fill="#F8FAFC" font-family="Inter, ui-sans-serif, system-ui, sans-serif" font-size="15" font-weight="750" letter-spacing="2">SN</text>
    </g>

    <g fill="none" stroke-linecap="round" stroke-linejoin="round">
      <rect x="572" y="219" width="54" height="54" rx="15" fill="#F8FAFC" stroke="#F8FAFC"/>
      <path d="M587 245l12-10 12 10v12h-8v-8h-8v8h-8z" stroke="#111827" stroke-width="2"/>

      <rect x="572" y="288" width="54" height="54" rx="15" fill="#152237" stroke="#243750"/>
      <rect x="588" y="304" width="22" height="22" rx="4" stroke="#8094AA" stroke-width="2"/>
      <path d="M599 304v22M588 315h22" stroke="#8094AA" stroke-width="1.5"/>

      <rect x="572" y="357" width="54" height="54" rx="15" fill="#152237" stroke="#243750"/>
      <path d="M587 374h24v19h-24zM592 369h14l5 5h-24z" stroke="#8094AA" stroke-width="2"/>

      <rect x="572" y="426" width="54" height="54" rx="15" fill="#152237" stroke="#243750"/>
      <path d="M588 463v-17M599 463v-26M610 463v-12" stroke="#8094AA" stroke-width="2"/>

      <circle cx="599" cy="713" r="27" fill="#152237" stroke="#243750"/>
      <path d="M599 699v7M599 720v7M585 713h7M606 713h7M589 703l5 5M604 718l5 5M609 703l-5 5M594 718l-5 5" stroke="#8094AA" stroke-width="1.8"/>
      <circle cx="599" cy="713" r="6" stroke="#8094AA" stroke-width="2"/>

      <circle cx="599" cy="772" r="21" fill="#152237" stroke="#243750"/>
      <path d="M591 772h16M601 766l6 6-6 6" stroke="#8094AA" stroke-width="1.8"/>
    </g>

    <g font-family="Inter, ui-sans-serif, system-ui, sans-serif">
      <rect x="1371" y="125" width="119" height="35" rx="17.5" fill="#0E2636" stroke="#1B4A61"/>
      <circle cx="1392" cy="142.5" r="4" fill="#38BDF8" filter="url(#cyanGlow)"/>
      <text x="1405" y="147" fill="#8BDBFB" font-size="10" font-weight="750" letter-spacing="1.4">SELF HOSTED</text>

      <text x="1089" y="245" text-anchor="middle" fill="#F8FAFC" font-family="ui-monospace, SFMono-Regular, Menlo, monospace" font-size="72" font-weight="300" letter-spacing="-3">09:41</text>
      <text x="1089" y="280" text-anchor="middle" fill="#8598AE" font-size="12" font-weight="650" letter-spacing="2.3">7月23日星期四  ·  26°C  上海</text>

      <g filter="url(#softShadow)">
        <rect x="730" y="309" width="718" height="70" rx="20" fill="#151F30" stroke="#2B3C53"/>
        <rect x="746" y="324" width="114" height="40" rx="20" fill="#202D41"/>
        <circle cx="769" cy="344" r="8" fill="#38BDF8" opacity="0.92"/>
        <path d="M766 344h6M769 341v6" stroke="#07111E" stroke-width="1.5" stroke-linecap="round"/>
        <text x="785" y="349" fill="#B8C8D8" font-size="12" font-weight="650">Search</text>
        <circle cx="890" cy="343" r="8" fill="none" stroke="#6F8298" stroke-width="2"/>
        <path d="M896 349l7 7" stroke="#6F8298" stroke-width="2" stroke-linecap="round"/>
        <text x="918" y="350" fill="#6F8298" font-size="15">搜索链接或互联网</text>
        <rect x="1386" y="326" width="44" height="36" rx="12" fill="#202D41"/>
        <path d="M1401 344h14M1410 338l6 6-6 6" fill="none" stroke="#9FB2C7" stroke-width="1.8" stroke-linecap="round" stroke-linejoin="round"/>
      </g>

      <text x="704" y="431" fill="#7F93AA" font-size="11" font-weight="750" letter-spacing="2.4">WORKSPACE</text>
      <line x1="800" y1="427" x2="1469" y2="427" stroke="#233249"/>

      <g filter="url(#softShadow)">
        <g>
          <rect x="704" y="452" width="214" height="112" rx="18" fill="url(#card)" stroke="#2B3C53"/>
          <rect x="723" y="471" width="54" height="54" rx="15" fill="#1C3A4C"/>
          <path d="M739 507v-19h22v19M735 507h30M742 488v-6h16v6" fill="none" stroke="#7DD3FC" stroke-width="2" stroke-linecap="round" stroke-linejoin="round"/>
          <text x="793" y="496" fill="#F1F5F9" font-size="15" font-weight="700">Projects</text>
          <text x="793" y="519" fill="#71849A" font-size="11">12 active spaces</text>
        </g>

        <g>
          <rect x="932" y="452" width="214" height="112" rx="18" fill="url(#card)" stroke="#2B3C53"/>
          <rect x="951" y="471" width="54" height="54" rx="15" fill="#263248"/>
          <path d="M968 485h20v26h-20zM972 491h12M972 497h12M972 503h8" fill="none" stroke="#D5DFEA" stroke-width="2" stroke-linecap="round" stroke-linejoin="round"/>
          <text x="1021" y="496" fill="#F1F5F9" font-size="15" font-weight="700">Notes</text>
          <text x="1021" y="519" fill="#71849A" font-size="11">Quick capture</text>
        </g>

        <g>
          <rect x="1160" y="452" width="214" height="112" rx="18" fill="url(#card)" stroke="#2B3C53"/>
          <rect x="1179" y="471" width="54" height="54" rx="15" fill="#173448"/>
          <path d="M1194 507c2-10 7-19 20-22-1 13-7 20-20 22zM1195 505l14-13" fill="none" stroke="#7DD3FC" stroke-width="2" stroke-linecap="round" stroke-linejoin="round"/>
          <text x="1249" y="496" fill="#F1F5F9" font-size="15" font-weight="700">Reading</text>
          <text x="1249" y="519" fill="#71849A" font-size="11">Saved for later</text>
        </g>

        <g>
          <rect x="1388" y="452" width="80" height="112" rx="18" fill="#12293A" stroke="#2B4C63"/>
          <circle cx="1428" cy="508" r="24" fill="#163E55"/>
          <path d="M1417 508h22M1428 497v22" stroke="#7DD3FC" stroke-width="2.2" stroke-linecap="round"/>
        </g>
      </g>

      <text x="704" y="615" fill="#7F93AA" font-size="11" font-weight="750" letter-spacing="2.4">DAILY</text>
      <line x1="759" y1="611" x2="1469" y2="611" stroke="#233249"/>

      <g filter="url(#softShadow)">
        <g>
          <rect x="704" y="636" width="156" height="112" rx="18" fill="url(#card)" stroke="#2B3C53"/>
          <circle cx="782" cy="682" r="23" fill="#213149"/>
          <path d="M770 682h24M782 670v24" stroke="#D5DFEA" stroke-width="2" stroke-linecap="round"/>
          <text x="782" y="728" text-anchor="middle" fill="#8A9DB3" font-size="11">Quick links</text>
        </g>

        <g>
          <rect x="874" y="636" width="270" height="112" rx="18" fill="url(#card)" stroke="#2B3C53"/>
          <rect x="894" y="656" width="52" height="52" rx="15" fill="#1E344A"/>
          <path d="M906 686l9-10 7 7 12-15" fill="none" stroke="#7DD3FC" stroke-width="2.2" stroke-linecap="round" stroke-linejoin="round"/>
          <text x="963" y="682" fill="#F1F5F9" font-size="15" font-weight="700">Dashboard</text>
          <text x="963" y="705" fill="#71849A" font-size="11">Private web panel</text>
        </g>

        <g>
          <rect x="1158" y="636" width="310" height="112" rx="18" fill="url(#card)" stroke="#2B3C53"/>
          <rect x="1178" y="656" width="52" height="52" rx="15" fill="#283449"/>
          <path d="M1192 671h24v22h-24zM1198 667h12l6 5h-24z" fill="none" stroke="#D5DFEA" stroke-width="2" stroke-linecap="round" stroke-linejoin="round"/>
          <text x="1248" y="682" fill="#F1F5F9" font-size="15" font-weight="700">Archive</text>
          <text x="1248" y="705" fill="#71849A" font-size="11">Everything in its place</text>
          <circle cx="1437" cy="692" r="7" fill="#38BDF8" opacity="0.86"/>
        </g>
      </g>
    </g>
  </g>

  <rect x="548.75" y="95.75" width="978.5" height="708.5" rx="33.25" fill="none" stroke="#344760" stroke-width="1.5"/>
  <path d="M593 805h890" stroke="url(#cyan)" stroke-opacity="0.48" stroke-width="2" stroke-linecap="round"/>

  <g font-family="Inter, ui-sans-serif, system-ui, sans-serif">
    <text x="98" y="790" fill="#53677F" font-size="11" font-weight="700" letter-spacing="2.1">REACT  ·  CLOUDFLARE WORKERS  ·  D1</text>
    <text x="98" y="820" fill="#34485F" font-size="10" letter-spacing="1.4">YOUR LINKS. YOUR SPACE. YOUR CLOUD.</text>
  </g>
</svg>
